<?xml version="1.0" encoding="UTF-8"?>
<svg id="_レイヤー_2" data-name="レイヤー_2" xmlns="http://www.w3.org/2000/svg" viewBox="0 0 68.11 68.11">
  <defs>
    <style>
      .cls-1 {
        fill: #040000;
      }
    </style>
  </defs>
  <g id="Guide">
    <path class="cls-1" d="M19.95.24c-3.62.17-6.1.75-8.26,1.6-2.24.87-4.14,2.04-6.02,3.94-1.89,1.9-3.05,3.8-3.92,6.04-.84,2.17-1.41,4.64-1.57,8.27C.02,23.71-.01,24.87,0,34.12c.02,9.25.06,10.41.23,14.04.17,3.62.75,6.1,1.6,8.26.87,2.24,2.04,4.14,3.94,6.02,1.9,1.89,3.8,3.05,6.04,3.92,2.17.84,4.64,1.41,8.27,1.57,3.63.16,4.79.2,14.04.18,9.25-.02,10.41-.06,14.04-.23,3.62-.17,6.1-.75,8.26-1.6,2.24-.88,4.14-2.04,6.02-3.94,1.89-1.9,3.05-3.8,3.91-6.04.84-2.17,1.41-4.64,1.57-8.27.16-3.63.2-4.8.18-14.04-.02-9.25-.06-10.41-.23-14.04-.17-3.63-.75-6.1-1.6-8.26-.87-2.24-2.04-4.13-3.94-6.02-1.9-1.89-3.8-3.05-6.04-3.91-2.17-.84-4.64-1.41-8.27-1.57C44.4.02,43.24-.01,33.99,0c-9.25.02-10.41.06-14.04.23M20.35,61.8c-3.32-.14-5.12-.7-6.32-1.16-1.59-.62-2.73-1.35-3.92-2.54-1.19-1.19-1.93-2.32-2.55-3.91-.47-1.2-1.03-3-1.18-6.32-.17-3.59-.21-4.67-.22-13.76-.02-9.09.02-10.17.17-13.76.14-3.32.7-5.12,1.16-6.32.62-1.59,1.35-2.73,2.54-3.92,1.19-1.2,2.32-1.93,3.91-2.55,1.2-.47,3-1.03,6.32-1.18,3.59-.17,4.67-.21,13.76-.22,9.09-.02,10.17.01,13.76.17,3.32.14,5.12.69,6.32,1.16,1.59.62,2.73,1.35,3.92,2.54,1.19,1.19,1.93,2.32,2.56,3.91.47,1.2,1.03,3,1.18,6.32.17,3.59.21,4.67.23,13.76.02,9.09-.02,10.17-.17,13.76-.14,3.32-.7,5.12-1.16,6.33-.62,1.59-1.35,2.73-2.54,3.92-1.19,1.19-2.32,1.93-3.91,2.55-1.2.47-3,1.03-6.32,1.18-3.59.17-4.67.21-13.76.22-9.09.02-10.17-.02-13.76-.17M48.11,15.85c0,2.26,1.84,4.08,4.09,4.08,2.26,0,4.08-1.84,4.08-4.09,0-2.26-1.84-4.08-4.09-4.08-2.26,0-4.08,1.84-4.08,4.09M16.57,34.09c.02,9.66,7.86,17.47,17.52,17.45,9.66-.02,17.47-7.86,17.45-17.52-.02-9.65-7.86-17.47-17.52-17.45-9.66.02-17.47,7.86-17.45,17.52M22.7,34.08c-.01-6.27,5.06-11.36,11.33-11.37,6.27-.01,11.36,5.06,11.37,11.33.01,6.27-5.06,11.36-11.33,11.37-6.27.01-11.36-5.06-11.37-11.33"/>
  </g>
</svg>