<svg width="383" height="662" viewBox="0 0 383 662" fill="none" xmlns="http://www.w3.org/2000/svg">
<path d="M0.00071931 655.715L1.06461 653.912L1.39683 653.365L0.00071931 655.715Z" fill="white"/>
<path d="M5.04307 647.271L6.85653 644.214C5.80368 645.925 7.20857 643.574 4.37036 648.32C3.43981 649.895 1.89233 652.496 1.46492 653.226C2.17679 652.04 3.2311 650.237 4.29427 648.457C3.79113 649.302 2.78446 651.013 2.16754 652.04C3.89529 649.142 3.26877 650.192 5.13874 647.066L5.04344 647.248L5.04307 647.271Z" fill="white"/>
<path d="M7.18772 643.621C7.02587 643.918 6.85477 644.214 6.88323 644.169C7.05432 643.872 7.93788 642.366 7.18772 643.621Z" fill="white"/>
<path d="M8.28639 641.748C9.43565 639.809 8.27641 641.794 8.39023 641.612L9.69211 639.375L8.28639 641.748Z" fill="white"/>
<path d="M13.065 633.719C13.2549 633.399 13.426 633.102 13.6063 632.806C13.4068 633.148 13.2738 633.376 13.065 633.719Z" fill="white"/>
<path d="M15.4187 629.746C14.9059 630.614 14.3551 631.549 13.6052 632.804C13.6244 632.758 13.6432 632.736 13.6809 632.69C14.3451 631.595 13.7363 632.691 12.6643 634.448C11.5631 636.296 11.6769 636.113 10.6898 637.756L12.0182 635.566C13.6994 632.69 14.7441 630.91 15.4187 629.746Z" fill="white"/>
<path d="M13.0636 633.72C12.8641 634.062 12.6649 634.381 12.4369 634.769C12.7218 634.29 12.8929 633.994 13.0636 633.72Z" fill="white"/>
<path d="M10.6722 637.756L10.074 638.76L10.2255 638.532L10.6722 637.756Z" fill="white"/>
<path d="M19.3221 623.174C19.0735 623.7 16.5215 627.874 16.226 628.445C17.7735 625.844 19.0255 623.814 18.6926 624.408L20.4019 621.51C20.9627 620.528 20.2235 621.691 19.3224 623.151L19.3221 623.174Z" fill="white"/>
<path d="M22.7337 617.748C22.8481 617.542 22.9813 617.313 23.1242 617.061C22.9432 617.382 22.8003 617.633 22.7337 617.748Z" fill="white"/>
<path d="M31.3407 603.077L27.3703 609.877C27.7319 609.215 27.5805 609.443 28.4829 607.891C26.726 610.881 26.4888 611.268 25.0359 613.733C24.5727 614.393 27.6181 609.398 26.747 610.72C25.7215 612.454 24.1837 615.032 23.3658 616.493L21.7152 619.185L22.2923 618.342C22.9562 617.27 23.6133 616.037 24.0296 615.421C24.2472 615.102 23.5823 616.243 23.1172 617.019C24.18 615.262 26.0208 612.228 28.1657 608.669C30.4342 604.882 29.8501 605.587 31.3134 603.053L31.3407 603.077Z" fill="white"/>
<path d="M31.535 602.916L31.8085 602.554L31.6018 602.78L31.535 602.916Z" fill="white"/>
<path d="M35.8608 595.454L33.7988 599.037C33.5712 599.402 33.4389 599.584 33.2875 599.812C33.3817 599.698 32.8302 600.68 32.9244 600.566C33.9089 599.085 35.4597 596.277 36.5712 594.359C39.5413 589.454 36.4556 594.657 37.6396 592.833C36.814 594.202 36.7667 594.27 35.6189 596.141C37.4664 593.268 39.7094 589.342 40.8498 587.356C40.5085 587.904 40.4146 587.994 39.7781 589.09L40.9658 587.036C39.6868 589.019 38.624 590.776 35.8608 595.454Z" fill="white"/>
<path d="M32.1384 601.705C32.9078 600.405 33.2019 599.926 33.2681 599.835C33.06 600.131 32.7943 600.564 32.1384 601.705Z" fill="white"/>
<path d="M41.4718 586.308C41.3388 586.537 41.13 586.879 40.8451 587.358C40.9877 587.107 41.1773 586.81 41.4718 586.308Z" fill="white"/>
<path d="M40.2427 588.129L41.7049 585.687L41.1177 586.576C40.9181 586.919 40.1961 588.151 40.2427 588.129Z" fill="white"/>
<path d="M96.1486 494.947C95.9809 495.037 95.4319 495.857 94.3019 497.774C94.3916 497.361 95.8619 494.966 96.5194 493.709C95.0033 496.081 96.4957 493.456 96.0726 493.91C94.4114 496.693 93.7321 498.157 91.9389 501.099C92.0161 500.893 91.9703 500.869 91.7154 501.211C89.6053 504.909 86.0224 511.163 83.8993 514.515C81.8783 517.846 80.4051 520.425 78.2108 524.191C70.9389 536.398 63.3633 549.107 55.5409 562.227L54.4826 564.283C54.0766 564.829 52.6219 567.409 52.8147 566.905C53.2421 566.175 53.65 565.514 54.1627 564.647C52.4482 567.291 49.729 572.108 47.7175 575.416C47.9543 575.051 48.3208 574.665 47.7224 575.692C47.8313 575.233 45.3493 579.662 44.7082 580.458C42.6968 583.766 44.6762 580.734 42.5786 584.225C42.3862 584.706 44.5994 580.917 44.9961 580.371C44.3674 581.559 43.0984 583.496 43.2193 583.452C46.5969 577.909 52.7538 567.25 57.8631 558.555L57.3571 559.584C59.9603 555.088 64.1946 547.969 66.3535 544.686C65.8252 545.369 70.2438 538.276 69.7672 538.614C70.4491 537.565 70.6486 537.223 71.5973 535.671L71.8277 535.122C73.1757 532.863 73.0007 533.413 74.5389 530.812C73.489 532.339 74.6005 530.421 75.0117 529.553C76.8303 526.749 78.9242 523.488 80.5349 520.98C80.3938 521.139 80.2338 521.321 79.6848 522.141C80.7658 520.408 80.5415 520.566 80.8089 520.017C81.8344 518.283 81.782 518.673 81.7695 518.881C83.6761 515.778 84.4166 513.947 85.8659 511.713L85.3194 512.373C87.257 509.063 88.9423 506.511 91.0794 502.859C92.184 501.38 89.375 506.034 88.5084 507.655C88.9628 506.972 89.8926 505.443 90.2041 505.033C91.1083 503.366 92.5844 500.603 93.6889 498.547C92.685 500.673 95.4098 496.087 96.159 494.878L96.1486 494.947Z" fill="white"/>
<path d="M90.1948 505.108C89.9468 505.588 89.737 505.999 89.6036 506.25C89.8127 505.885 90.003 505.542 90.316 505.041C90.336 504.949 90.289 504.994 90.1944 505.131L90.1948 505.108Z" fill="white"/>
<path d="M96.1437 494.951C96.1437 494.951 96.192 494.906 96.2015 494.906C96.4166 494.542 96.3391 494.633 96.1437 494.951Z" fill="white"/>
<path d="M83.623 514.998C83.7083 514.861 83.8129 514.679 83.9075 514.542C84.0309 514.337 84.1355 514.154 84.2586 513.972L83.623 514.998Z" fill="white"/>
<path d="M82.2263 518.498C81.7906 519.159 81.2034 520.048 80.5404 521.051C80.7381 520.823 80.9074 520.642 82.2263 518.498Z" fill="white"/>
<path d="M69.0484 540.239C68.649 540.946 68.8947 540.605 68.6187 541.107C69.4542 539.715 69.721 539.213 69.0484 540.239Z" fill="white"/>
<path d="M92.5633 501.206L94.1881 498.422L94.7779 497.372L92.5633 501.206Z" fill="white"/>
<path d="M125.347 444.513C123.825 446.631 121.761 450.376 119.977 453.319C116.773 458.957 119.743 454.674 116.666 459.9L117.032 458.408C113.955 463.634 109.552 470.912 107.062 475.801C106.808 476.12 106.249 476.963 107.03 475.524C104.978 479.016 106.166 478.113 103.37 482.537C105.856 477.878 102.447 483.628 103.063 482.118L103.453 481.41C101.715 484.377 99.4602 488.441 98.3024 490.357C98.2899 490.564 99.3483 489.084 97.8101 491.685C98.4363 490.659 98.2332 491.231 98.211 491.461C99.7714 488.63 100.661 487.285 101.586 485.48C102.522 484.159 100.996 486.554 101.941 485.233L103.179 482.926C104.128 481.398 102.254 484.731 103.734 482.313C103.879 481.924 105.04 479.823 106.197 477.907L105.883 478.524C106.748 476.971 108.009 474.987 107.503 475.394L108.626 473.96L108.393 474.049C110.821 470.103 111.872 469.106 114.916 463.626C114.149 464.812 114.797 463.555 115.187 462.825C113.852 464.853 113.636 465.679 112.411 467.756C112.169 467.844 114.188 464.075 112.663 466.447C114.365 463.963 115.749 461.221 116.59 460.613C118.573 457.35 119.245 455.795 121.282 452.579L121.243 452.763C121.508 451.754 122.919 450.21 124.295 447.307L123.215 448.994C123.219 448.741 123.732 447.874 124.444 446.641C124.399 446.779 124.461 446.741 124.631 446.529C124.771 445.886 127.013 442.029 127.271 441.457C126.304 443.008 125.206 445.202 124.122 447.143C124.639 446.022 124.407 446.065 125.356 444.537L125.347 444.513Z" fill="white"/>
<path d="M105.254 479.664L105.865 478.476C105.608 478.933 105.379 479.367 105.254 479.664Z" fill="white"/>
<path d="M134.427 430.031C135.707 427.978 134.155 430.878 135.376 429.032C136.597 426.656 133.792 431.057 134.958 428.611C135.779 427.495 136.945 425.072 137.458 424.182C136.941 425.326 137.387 425.195 137.632 424.899C138.081 423.962 139.234 422.345 140.069 420.976C137.958 424.121 141.734 417.939 139.823 420.719C139.887 420.236 141.761 416.811 142.582 415.718C142.578 415.995 141.933 417.021 141.42 417.911C141.099 418.965 142.764 415.928 143.145 415.773C144.951 412.025 151.169 401.597 149.186 403.731C148.477 404.687 147.969 405.854 147.256 407.109C149.313 403.871 147.388 407.526 147.252 407.961C146.363 409.26 144.951 412.025 145.215 411.154L146.494 408.548C142.083 415.757 136.128 425.912 131.131 434.516L133.305 430.865C133.101 431.507 132.084 433.241 131.304 434.68L132.498 433.386C131.863 434.412 131.282 435.485 131.286 435.209C130.579 436.695 130.956 436.24 131.465 435.627C129.858 438.434 129.54 438.682 128.374 441.105C131.184 436.981 130.575 436.948 133.766 432.116L134.437 430.008L134.427 430.031Z" fill="white"/>
<path d="M128.577 440.213L129.162 438.886L128.199 440.691L128.577 440.213Z" fill="white"/>
<path d="M129.328 437.438C129.392 437.485 129.001 438.216 129.065 438.263C130.345 436.21 130.159 436.322 129.328 437.438Z" fill="white"/>
<path d="M144.807 412.989L146.414 410.158L145.325 411.822C145.379 411.892 145.007 412.6 144.808 412.965L144.807 412.989Z" fill="white"/>
<path d="M155.825 392.345C153.583 396.225 152.694 398.1 150.071 402.112C148.914 404.581 150.833 401.825 150.388 403.061C151.678 401.009 151.351 400.658 152.635 398.329C153.207 397.831 154.526 395.019 155.806 392.99C155.619 393.102 155.575 392.963 155.835 392.345L155.825 392.345Z" fill="white"/>
<path d="M163.929 380.564C164.964 378.83 165.929 376.818 166.789 375.611C166.727 376.025 166.136 377.144 165.502 378.124C166.031 377.949 166.623 376.138 167.831 374.591C167.718 374.705 167.293 375.297 167.58 374.656C170.388 370.117 169.033 371.616 172.71 365.87C173.197 364.864 173.71 363.997 173.528 363.787C175.692 360.781 174.657 362.515 177.221 358.778C177.073 358.73 176.135 359.613 176.041 359.151C179.681 353.935 179.566 353.081 181.909 349.824C181.662 350.258 181.403 350.875 180.787 351.833C181.237 351.978 182.622 348.592 183.882 346.631L183.907 347.391C185.029 345.382 186.898 341.726 188.436 339.724L188.183 340.549C190.983 335.25 194.435 329.731 196.86 325.347L198.295 323.481C201.59 317.291 194.844 328.977 197.114 323.9C197.773 324.348 198.784 320.587 200.844 317.74C201.878 316.628 198.93 321.28 200.086 320.054C200.365 318.769 201.077 318.158 202.068 316.262C201.989 317.182 204.259 312.704 203.771 314.378L207.146 307.245C207.813 306.565 208.858 304.739 209.619 303.346C207.654 306.654 209.943 301.6 207.67 305.065C204.53 310.751 199.219 319.972 195.133 326.448C194.879 327.895 192.56 330.784 192.063 332.434C191.907 332.362 191.56 332.679 191.404 332.631C188.856 337.151 192.107 331.997 191.55 333.301C190.437 335.31 189.422 336.423 189.456 335.986C187.596 339.066 189.3 336.513 188.456 338.481L187.049 339.771C181.337 349.769 173.807 363.101 167.131 373.82L167.739 373.392C164.696 378.204 162.99 382.691 160.115 386.262L159.309 388.115C159.75 387.085 158.639 388.38 159.339 386.802C158.567 388.31 157.659 389.609 156.858 391.139L158.392 388.814C157.444 390.895 156.234 392.626 155.814 392.919C153.697 397.054 157.317 391.377 157.898 390.879C160.839 384.891 161.241 386.303 164.181 380.96C165.981 377.602 163.887 380.909 163.939 380.495L163.929 380.564Z" fill="white"/>
<path d="M159.762 385.979C159.581 386.322 159.437 386.619 159.332 386.848C159.485 386.551 159.628 386.276 159.762 385.979Z" fill="white"/>
<path d="M209.611 303.37C209.839 302.982 210.115 302.502 210.476 301.863C210.736 301.222 210.287 302.114 209.611 303.37Z" fill="white"/>
<path d="M155.792 392.986C155.792 392.986 155.802 392.986 155.813 392.936C155.803 392.936 155.792 392.986 155.782 392.986L155.792 392.986Z" fill="white"/>
<path d="M154.56 396.445L155.395 395.054L155.2 395.12L154.56 396.445Z" fill="white"/>
<path d="M218.586 289.254L218.516 288.953C218.466 289.16 218.455 289.321 218.586 289.254Z" fill="white"/>
<path d="M242.486 249.485L241.964 250.329C242.144 250.102 242.324 249.782 242.486 249.485Z" fill="white"/>
<path d="M299.481 152.824C300.977 149.968 302.976 146.246 303.959 143.682L303.95 144.28C304.733 142.703 307.254 137.515 305.325 139.719L304.994 140.773C303.186 144.683 303.386 142.521 301.787 144.868C299.988 148.202 299.317 151.462 297.578 153.899C296.875 155.155 296.875 154.579 297.015 153.913C295.336 156.605 294.987 158.81 293.892 160.843C292.669 158.704 289.031 170.186 286.112 172.443C284.626 175.275 282.505 178.513 280.679 182.376C281.54 179.925 278.81 185.433 279.037 183.939C278.904 186.494 273.195 192.783 273.376 195.366C270.56 199.306 273.306 195.687 270.099 200.404C270.047 200.173 270.56 199.306 270.76 198.918C269.43 200.578 269.107 202.922 267.865 203.732C265.362 207.746 267.587 204.948 266.264 207.944C263.631 212.025 264.292 210.562 262.658 212.171C262.665 213.484 261.024 215.6 259.892 218.185C260.214 217.706 262.013 214.948 260.952 217.211C257.927 222.092 258.726 221.805 255.987 226.737C254.31 228.139 258.769 222.036 256.11 225.38C257.753 221.951 259.11 219.739 259.867 217.424C257.485 221.371 254.633 226.393 252.155 231.168C250.686 233.471 252.764 229.473 251.617 231.297C248.94 235.217 247.929 238.932 245.765 241.961L246.061 240.768C244.983 243.515 241.497 248.273 239.21 252.636C239.575 252.366 239.818 252.185 239.549 252.872C239.273 251.624 236.401 259.064 233.829 262.179C234.211 262.599 232.036 266.849 230.611 269.337C230.046 269.996 230.081 269.513 230.038 269.328C232.515 265.774 232.117 264.685 233.9 261.19C232.439 264.184 229.77 268.126 228.552 270.94L228.936 269.472C226.754 273.03 227.387 273.938 224.988 277.194L225.102 276.413C220.572 284.103 215.062 292.423 211.652 299.417C211.417 300.265 213.45 297.925 213.615 298.02C215.719 294.114 216.824 291.437 218.407 288.353L218.544 289.023C218.811 287.968 220.734 284.359 219.546 285.883C220.816 283.278 220.72 284.704 222.171 281.733C222.213 282.609 221.309 284.23 221.439 284.808L222.709 282.202C222.352 283.187 223.577 281.064 223.23 282.026C225.527 277.018 226.81 276.486 229.306 271.781L227.837 274.084C227.751 273.691 228.586 272.345 229.177 271.18C230.019 270.525 230.429 269.749 231.818 267.767C232.879 265.549 233.342 263.783 234.889 261.182C234.758 262.47 237.566 257.263 238.026 257.408C238.158 256.098 240.956 252.111 241.061 251.33C241.853 249.776 243.009 247.975 243.104 248.391C242.989 248.619 242.76 249.099 242.512 249.556L243.347 248.21C243.288 248.44 243.343 248.441 243.248 248.624C243.988 247.415 243.849 246.837 244.903 245.609C244.946 245.817 244.434 246.685 244.033 247.484C246.033 244.337 247.164 240.555 248.989 238.511C249.217 237.593 251.477 233.76 250.765 233.748C251.451 233.022 251.398 234.081 253.024 231.182C253.79 228.867 254.945 228.333 256.076 225.771C254.606 229.318 256.128 226.002 254.849 229.161C256.057 227.567 257.475 223.79 259.474 220.643C259.717 220.485 259.769 220.693 260.021 220.536C260.683 219.05 261.361 217.056 262.239 216.471L262.014 216.099C263.412 214.141 265.23 210.83 266.82 209.012L268.23 205.188C270.758 202.511 273.525 196.474 275.047 192.536C275.882 191.191 277.159 189.322 277.22 189.553C277.047 189.965 276.768 190.652 276.432 191.43C277.647 189.445 279.284 187.559 279.741 185.54C280.906 183.186 280.81 184.612 281.774 183.223C283.949 177.752 289.441 171.736 289.677 168.492C288.652 170.203 286.601 173.096 284.662 176.497C285.114 175.398 284.61 175.69 285.323 174.434C287.262 171.033 288.46 170.062 290.338 166.429L290.442 168.066C294.152 163.68 296.416 155.516 299.544 152.917L299.481 152.824Z" fill="white"/>
<path d="M274.305 195.058L275.896 193.264L275.613 193.006C275.194 193.829 274.747 194.582 274.314 195.058L274.305 195.058Z" fill="white"/>
<path d="M275.602 193.007C275.879 192.458 276.137 191.91 276.368 191.36C276.055 191.885 275.76 192.41 275.53 192.936L275.602 193.007Z" fill="white"/>
<path d="M305.105 143.055C305.436 142.577 306.079 141.642 306.652 140.477C306.2 140.999 305.366 142.322 305.105 143.055Z" fill="white"/>
<path d="M306.656 139.88L305.892 140.858L305.821 141.203L306.656 139.88Z" fill="white"/>
<path d="M347.992 68.4356L350.036 63.6543C350.557 63.4322 353 58.4958 352.374 60.72C353.444 57.3282 356.685 53.3949 355.156 53.6471C348.611 65.5204 339.136 80.2954 331.736 94.7577L332.823 92.0571C329.101 100.06 326.965 100.118 324.328 107.93L324.451 106.02C322.521 108.823 321.363 113.687 319.113 115.702L319.425 115.868C318.912 116.735 318.661 116.846 318.139 117.736L318.4 117.602C317.183 120.347 316.33 121.692 314.922 123.605C314.732 123.394 315.505 122.393 315.887 121.593C315.175 122.25 314.34 124.793 313.305 126.55C312.41 127.595 313.174 126.018 313.245 125.674C310.27 131.431 308.551 132.625 306.793 138.009C306.663 138.675 307.748 137.218 306.653 139.274C308.844 136.337 310.331 132.883 312.079 129.272L311.557 130.138C312.602 125.986 312.782 128.615 314.973 123.882C314.521 125.625 313.486 127.359 313.164 128.413C316.249 125.053 316.842 120.825 319.092 119.386L318.901 119.775C319.353 119.252 319.997 117.719 320.579 116.508C320.319 116.642 319.676 117.553 319.214 118.099C319.806 116.887 319.928 115.599 320.05 114.933C320.953 114.487 320.894 112.989 322.11 111.465C322.692 111.474 321.345 113.687 321.023 114.764L322.249 112.02C323.475 109.897 323.665 110.73 324.378 110.073C325.283 107.784 323.665 110.73 324.319 108.552C325.865 107.194 331.481 97.4024 333.985 92.1676C333.081 93.8347 333.863 93.4785 332.707 95.2798C333.159 94.7572 334.506 91.9455 334.368 91.3675C336.107 87.7329 338.558 84.0865 340.436 81.6518L339.784 81.9409C340.994 78.5052 343.661 76.4054 346.104 71.4921L346.048 71.5603C346.848 70.0298 347.185 67.4325 348.783 65.1315C348.539 66.5326 347.705 67.8553 347.974 68.4123L347.992 68.4356Z" fill="white"/>
<path d="M356.732 51.7207L356.105 53.968C357.079 52.5784 357.958 49.5751 357.62 49.3625C357.046 50.5971 356.133 51.6191 356.15 52.2643C356.281 52.1973 356.35 52.5208 356.742 51.6978L356.732 51.7207Z" fill="white"/>
<path d="M373.987 22.3025C374.276 21.524 374.094 21.3598 374.176 20.8774C370.546 27.1999 366.122 35.1913 364.485 37.008C363.19 38.8531 363.294 40.49 361.824 43.4149L360.904 43.7458C360.208 45.6926 357.409 49.1262 358.678 48.9619C358.798 48.9178 359.234 47.0821 360.017 46.1041L360.024 46.7722L361.633 43.8034L361.258 45.2945C363.745 42.3397 362.364 40.8208 365.276 36.698L365.579 37.9465C367.448 34.8897 368.275 32.8991 370.099 30.878C370.099 30.878 369.952 30.2308 369.7 31.0099C369.378 31.4655 368.849 31.6414 368.962 30.9292C371.501 25.2343 368.717 32.3993 370.803 29.5993C372.96 24.7276 377.316 16.3207 378.897 15.1019C377.576 16.2327 379.029 12.6165 380.376 10.4267C381.106 9.83945 380.158 11.8973 380.036 12.6324C380.688 11.7214 381.279 11.178 381.853 9.94337C380.863 10.5957 381.141 8.75754 382.471 5.87652C379.1 10.4757 377.203 17.0559 373.978 22.3023L373.987 22.3025Z" fill="white"/>
<path d="M374.645 19.663C374.331 20.2569 374.214 20.6236 374.173 20.8763C374.601 20.146 375.029 19.3927 375.437 18.7082L374.654 19.6632L374.645 19.663Z" fill="white"/>
</svg>
