<svg width="60" height="27" viewBox="0 0 60 27" fill="none" xmlns="http://www.w3.org/2000/svg">
<path d="M3.43806 0.0391311C3.46944 0.0699401 3.40668 0.430845 3.43806 0.461654C3.46944 0.492462 4.26732 0.492462 4.2987 0.461654C4.34352 0.417641 4.2225 0.0787426 4.348 0.0391311C4.75143 -0.0885058 4.77384 0.122755 4.72902 0.461654H39.4413C39.4413 0.461654 39.4189 0.0391311 39.4413 0.0391311H40.7323C40.7502 0.131558 40.7054 0.435246 40.7323 0.461654C40.7637 0.492462 41.5615 0.492462 41.5929 0.461654C41.6243 0.430845 41.5615 0.0699401 41.5929 0.0391311C41.6198 0.00832221 42.3505 0.021526 42.4042 0.0391311C42.5298 0.0787426 42.4087 0.417641 42.4536 0.461654C42.4804 0.488061 43.1304 0.479259 43.1752 0.461654C43.2873 0.426443 43.1976 0.0391311 43.2245 0.0391311H59.98V2.14734H57.4026C57.4026 2.14734 57.425 2.56986 57.4026 2.56986H53.1084C53.1084 2.56986 53.1308 2.99239 53.1084 2.99239H50.1007C50.1007 2.99239 50.0783 2.56986 50.1007 2.56986H51.8175C51.8175 2.56986 51.8399 2.14734 51.8175 2.14734H0.430318C0.412388 2.05491 0.457213 1.75123 0.430318 1.72482C0.403423 1.69841 0.0941321 1.74242 0 1.72482V0.0391311C0.425835 0.131558 3.31703 -0.0841046 3.43806 0.0391311Z" fill="#171729"/>
<path d="M26.5507 7.62251C26.5597 7.52568 26.5283 7.222 26.5507 7.19999C26.609 7.13837 28.2092 7.26161 28.272 7.19999C28.2989 7.17358 28.2541 6.86989 28.272 6.77747H30.4191C30.4191 6.77747 30.4415 7.19999 30.4191 7.19999H28.7023C28.6844 7.29242 28.7292 7.5961 28.7023 7.62251C28.6261 7.69733 26.8555 7.62251 26.5552 7.62251C26.5463 7.71934 26.5776 8.02303 26.5552 8.04503C26.479 8.11986 24.7084 8.04503 24.4081 8.04503C24.3991 8.14186 24.4305 8.44555 24.4081 8.46756C24.3633 8.51157 23.162 8.41914 23.1172 8.46756C23.0903 8.49396 23.1351 8.79765 23.1172 8.89008H20.97C20.97 8.89008 20.9925 9.3126 20.97 9.3126H19.2533C19.2533 9.3126 19.2757 9.73512 19.2533 9.73512H17.5365C17.5365 9.73512 17.5589 10.1576 17.5365 10.1576H15.8197C15.8197 10.1576 15.8421 10.5802 15.8197 10.5802H14.5287C14.5287 10.5802 14.5511 11.0027 14.5287 11.0027H12.8119C12.8119 11.0027 12.8343 11.4252 12.8119 11.4252H11.521C11.6644 12.0942 11.1669 11.7861 10.6603 11.8477V12.6928H14.0984C14.0984 12.6928 14.076 13.1153 14.0984 13.1153H17.5365C17.5365 13.1153 17.5141 13.5378 17.5365 13.5378H20.5442C20.5442 13.5378 20.5218 13.9603 20.5442 13.9603H23.1216C23.1216 13.9603 23.0992 14.3829 23.1216 14.3829H25.2687C25.2687 14.3829 25.2508 14.7218 25.2687 14.7218H27.4159C27.4159 14.7218 27.3934 15.1443 27.4159 15.1443H29.1326C29.1326 15.1443 29.1102 15.5668 29.1326 15.5668H30.8494C30.8494 15.5668 30.827 15.9893 30.8494 15.9893H32.5662C32.5662 15.9893 32.5438 16.4119 32.5662 16.4119H33.8572C33.8572 16.4119 33.8348 16.8344 33.8572 16.8344H35.1481C34.9375 17.763 36.2194 16.7464 36.0088 17.675H37.2997C37.0532 18.4276 38.0214 17.9523 38.1604 18.0975C38.1917 18.1284 38.129 18.4893 38.1604 18.5201C38.1917 18.5509 38.5593 18.4893 38.5907 18.5201C38.622 18.5509 38.5593 18.9118 38.5907 18.9426C38.6265 18.9778 39.4154 18.903 39.4513 18.9426C39.4827 18.9734 39.4199 19.3343 39.4513 19.3651C39.4827 19.3959 39.8502 19.3343 39.8816 19.3651C39.913 19.3959 39.8502 19.7568 39.8816 19.7876C39.913 19.8184 40.2806 19.7568 40.3119 19.7876C40.3433 19.8184 40.2806 20.1793 40.3119 20.2102C40.3433 20.241 40.7109 20.1793 40.7423 20.2102C40.8409 20.307 40.4823 20.7779 41.1726 20.6327V21.8958C41.1726 21.9223 41.567 21.8342 41.6029 21.9443C41.7329 22.3404 41.5177 22.3624 41.1726 22.3184V23.5815C40.4823 23.4363 40.8409 23.9072 40.7423 24.0041C40.7109 24.0349 40.3433 23.9732 40.3119 24.0041C40.2806 24.0349 40.3433 24.3958 40.3119 24.4266C40.2761 24.4618 39.4872 24.387 39.4513 24.4266C39.4199 24.4574 39.4827 24.8183 39.4513 24.8491C39.4199 24.8799 39.0524 24.8183 39.021 24.8491C39.0075 24.8623 38.9986 25.2716 39.021 25.2716H58.6991C58.726 25.2716 58.6363 24.8843 58.7484 24.8491C58.7977 24.8315 59.5283 24.8227 59.5597 24.8491C59.5911 24.8799 59.5283 25.2408 59.5597 25.2716C59.5911 25.3024 59.9586 25.2408 59.99 25.2716C60.0035 25.2848 60.0035 25.6809 59.99 25.6941C59.9586 25.725 59.5911 25.6633 59.5597 25.6941C59.5238 25.7294 59.6 26.504 59.5597 26.5392C59.4476 26.6448 58.977 26.2839 59.1294 26.9617H49.25C49.2321 26.8693 49.2769 26.5656 49.25 26.5392C49.2186 26.5084 48.4207 26.5084 48.3894 26.5392C48.3266 26.6052 48.5911 27.1466 48.0084 26.9617C47.8828 26.9221 48.0039 26.5832 47.959 26.5392C47.9322 26.5128 47.2015 26.5216 47.1477 26.5392C47.0357 26.5744 47.1253 26.9617 47.0984 26.9617H44.9513C44.9334 26.8693 44.9782 26.5656 44.9513 26.5392C44.9199 26.5084 44.122 26.5084 44.0907 26.5392C44.0458 26.5832 44.1669 26.9221 44.0414 26.9617C43.6379 27.0894 43.6155 26.8781 43.6604 26.5392H42.459C42.5039 26.8781 42.4815 27.0894 42.078 26.9617C41.966 26.9265 42.0556 26.5392 42.0287 26.5392H29.5719C29.545 26.5392 29.6347 26.9265 29.5226 26.9617C28.8368 27.1818 29.4778 26.3323 28.7158 26.5392V25.276H35.1616C35.1616 25.276 35.1392 24.8535 35.1616 24.8535H36.8784C36.6677 23.9248 37.9497 24.9415 37.739 24.0129H39.03C38.882 23.3351 39.3617 23.6872 39.4603 23.5903C39.4916 23.5595 39.4289 23.1986 39.4603 23.1678C39.4916 23.137 39.8592 23.1986 39.8906 23.1678C39.9892 23.071 39.6306 22.6 40.3209 22.7453V21.4821C39.5544 21.7242 40.0385 20.7779 39.8906 20.6371C39.8592 20.6063 39.4916 20.6679 39.4603 20.6371C39.4289 20.6063 39.4916 20.2454 39.4603 20.2146C39.4289 20.1838 39.0613 20.2454 39.03 20.2146C38.9986 20.1838 39.0613 19.8228 39.03 19.792C38.9941 19.7568 38.2052 19.8316 38.1693 19.792C38.1379 19.7612 38.2007 19.4003 38.1693 19.3695C38.1335 19.3343 37.3445 19.4091 37.3087 19.3695C37.2773 19.3387 37.3401 18.9778 37.3087 18.947C37.2728 18.9118 36.4839 18.9866 36.448 18.947C36.4167 18.9162 36.4794 18.5553 36.448 18.5245C36.3091 18.3792 35.3409 18.8546 35.5874 18.1019H34.2965C34.2965 18.1019 34.3189 17.6794 34.2965 17.6794H33.0055C33.0055 17.6794 33.0279 17.2569 33.0055 17.2569H31.7145C31.7145 17.2569 31.737 16.8344 31.7145 16.8344H30.4236C30.4236 16.8344 30.446 16.4119 30.4236 16.4119H28.7068C28.7068 16.4119 28.7292 15.9893 28.7068 15.9893H26.99C26.99 15.9893 27.0124 15.5668 26.99 15.5668H24.8429C24.8429 15.5668 24.8653 15.1443 24.8429 15.1443H22.2655C22.2655 15.1443 22.2879 14.7218 22.2655 14.7218H19.6881C19.6881 14.7218 19.706 14.3829 19.6881 14.3829H17.5409C17.5409 14.3829 17.5634 13.9603 17.5409 13.9603H14.1029C14.1029 13.9603 14.1253 13.5378 14.1029 13.5378H10.6648C10.6648 13.5378 10.6872 13.1153 10.6648 13.1153H9.0332V11.8521C9.12734 11.8345 9.43663 11.8785 9.46352 11.8521C9.49042 11.8257 9.44559 11.522 9.46352 11.4296H10.6648C10.6648 11.4296 10.6424 11.0071 10.6648 11.0071H11.9558C11.9558 11.0071 11.9334 10.5846 11.9558 10.5846H13.6726C13.6726 10.5846 13.6502 10.162 13.6726 10.162H14.9635C14.9635 10.162 14.9411 9.73952 14.9635 9.73952H16.6803C16.6803 9.73952 16.6579 9.317 16.6803 9.317H18.3971C18.3971 9.317 18.3747 8.89448 18.3971 8.89448H20.5442C20.5442 8.89448 20.5218 8.47196 20.5442 8.47196H22.6913C22.7092 8.37953 22.6644 8.07584 22.6913 8.04943C22.7496 7.98782 24.1616 8.04943 24.4081 8.04943C24.4171 7.95261 24.3857 7.64892 24.4081 7.62691C24.4843 7.55209 26.2549 7.62691 26.5552 7.62691L26.5507 7.62251Z" fill="#171729"/>
<path d="M49.6603 2.98796C49.6603 2.98796 49.6828 3.41048 49.6603 3.41048H47.9436C47.9436 3.41048 47.9211 2.98796 47.9436 2.98796C48.1856 2.98796 49.6021 2.92634 49.6603 2.98796Z" fill="#171729"/>
<path d="M47.5139 3.41056C47.5139 3.41056 47.5363 3.83309 47.5139 3.83309H45.7971C45.7971 3.83309 45.7747 3.41056 45.7971 3.41056C46.0391 3.41056 47.4556 3.34895 47.5139 3.41056Z" fill="#171729"/>
<path d="M40.7287 4.67363C40.7287 4.67363 40.7511 5.09615 40.7287 5.09615H39.0119C39.0119 5.09615 38.9895 4.67363 39.0119 4.67363C39.254 4.67363 40.6704 4.61201 40.7287 4.67363Z" fill="#171729"/>
<path d="M38.5822 5.09623C38.5822 5.09623 38.6046 5.51876 38.5822 5.51876H36.8654C36.8654 5.51876 36.843 5.09623 36.8654 5.09623C37.1075 5.09623 38.5239 5.03462 38.5822 5.09623Z" fill="#171729"/>
<path d="M34.7131 5.93681C34.7131 5.93681 34.7355 6.35933 34.7131 6.35933H32.9963C32.9963 6.35933 32.9739 5.93681 32.9963 5.93681C33.2383 5.93681 34.6548 5.87519 34.7131 5.93681Z" fill="#171729"/>
<path d="M32.5646 6.35942C32.5646 6.35942 32.5871 6.78194 32.5646 6.78194H30.8479C30.8479 6.78194 30.8254 6.35942 30.8479 6.35942C31.0899 6.35942 32.5064 6.2978 32.5646 6.35942Z" fill="#171729"/>
<path d="M44.9357 3.83304C44.9357 3.83304 44.9581 4.25556 44.9357 4.25556H43.6447C43.6447 4.25556 43.6223 3.83304 43.6447 3.83304C43.8285 3.83304 44.8864 3.78903 44.9357 3.83304Z" fill="#171729"/>
<path d="M42.8751 4.25113C42.8751 4.25113 42.8975 4.67365 42.8751 4.67365H41.5842C41.5842 4.67365 41.5618 4.25113 41.5842 4.25113C41.768 4.25113 42.8258 4.20712 42.8751 4.25113Z" fill="#171729"/>
<path d="M36.4298 5.51871C36.4298 5.51871 36.4522 5.94123 36.4298 5.94123H35.1389C35.1389 5.94123 35.1165 5.51871 35.1389 5.51871C35.3226 5.51871 36.3805 5.47469 36.4298 5.51871Z" fill="#171729"/>
</svg>
