<svg width="68" height="175" viewBox="0 0 68 175" fill="none" xmlns="http://www.w3.org/2000/svg">
<g clip-path="url(#clip0_1989_1029)">
<path d="M50.5087 155.432C49.9865 153.629 47.6854 153.977 47.2081 153.792C46.4435 153.496 45.9661 152.754 45.3955 152.583C43.2175 151.936 41.9756 153.629 40.6218 155.125C39.749 156.091 38.1677 155.648 37.9104 154.364C37.0825 150.216 36.262 146.027 34.7291 142.076C33.8751 139.875 32.7637 137.769 31.3726 135.871C30.6826 134.932 29.9218 134.042 29.0939 133.22C28.1727 132.307 27.1471 131.583 26.1028 130.822C25.8343 130.625 25.562 130.428 25.2599 130.299C24.9467 130.167 24.611 130.114 24.2828 130.023C24.059 129.962 23.839 129.883 23.6413 129.754C23.5481 129.693 23.4735 129.591 23.384 129.538C23.2572 129.466 23.0968 129.473 22.9551 129.458C22.3397 129.398 21.7244 129.333 21.1053 129.288C20.3258 129.231 19.3114 129.004 18.5356 129.193C16.3763 129.716 19.1398 131.246 20.2363 131.886L23.8278 133.568C25.2898 134.254 26.6548 135.167 27.7363 136.375C34.4159 143.841 35.2401 159.545 38.7048 167.951C39.1747 169.091 44.4892 175.898 45.3769 174.883C45.679 174.534 45.0375 172.625 43.5904 170.939C42.0278 169.121 40.8865 166.985 41.073 164.561C41.2931 161.841 42.8445 159.28 45.7349 158.451C47.7376 157.466 50.9637 156.977 50.5087 155.42V155.432Z" fill="white"/>
<path d="M38.0937 104.197L39.1976 101.027C39.455 100.284 40.2009 99.8523 40.9654 99.9848C43.0539 100.348 46.3545 101.254 46.8207 102.121C46.8655 102.205 46.086 103.731 46.0152 103.788C44.9746 104.614 41.8493 104.348 41.3757 106.841C40.999 108.83 44.4525 115.318 43.55 116.383C42.3864 117.758 38.8209 111.318 38.5151 110.561C38.1683 109.701 37.8289 106.864 37.7058 106.674C37.5977 106.508 35.4495 105.731 34.4388 104.455C28.673 97.1515 34.6812 79.0909 27.6101 73.1667C25.7379 71.5985 19.4052 70.9697 21.4676 68.7462C23.1496 66.9318 26.5695 68.5758 28.8483 69.6932C36.8779 73.6364 33.7526 94.6326 35.442 101.22C35.6136 101.886 37.0755 105.106 38.0974 104.201L38.0937 104.197Z" fill="white"/>
<path d="M57.6661 11.1057C49.1069 7.73071 39.481 7.71177 31.7759 13.2156C31.3731 12.939 31.347 12.6436 31.3134 12.1928C31.2277 11.0678 31.5372 7.65117 31.6342 6.30647C31.7722 4.45799 32.0034 2.63602 32.492 0.863289C31.2575 0.526168 28.8482 -0.807165 28.438 0.707986C27.2632 5.03753 28.0464 9.94662 28.3149 14.5754C28.3447 15.0792 28.1583 15.564 27.7779 15.8898L22.6349 20.2875C22.1128 20.7345 21.3631 20.7875 20.7813 20.4201L12.4832 15.1284C1.31705 8.69662 -5.769 30.439 6.27729 32.9125C13.3372 34.3633 16.7609 28.9845 21.6093 25.0868C22.1836 24.6247 23.0265 24.6284 23.5934 25.1057C25.1374 26.4087 25.9392 28.5337 28.0277 28.8178C28.9154 28.939 29.9895 29.0148 30.4333 28.0603C32.1973 24.6966 31.4141 20.8671 31.705 17.2193C31.7423 16.7421 31.9922 16.314 32.3801 16.0413C35.8783 13.5792 40.6446 10.9618 44.859 10.8595C51.587 10.6966 65.0393 15.9277 64.4426 24.2837C64.0995 29.0906 57.267 35.1019 53.4928 37.6209C48.3088 41.083 41.7448 42.3254 36.9562 46.689C36.0574 47.5072 35.5352 48.6739 35.5501 49.9012C35.5986 53.8898 36.8219 56.4542 39.1678 53.2534C40.8908 50.9012 45.9741 46.9542 48.9614 45.3936C51.6094 44.011 58.2777 39.5565 60.3401 37.4959C62.2534 35.583 63.7937 33.155 65.2593 30.8898C67.5567 27.3368 69.1604 23.0981 66.9451 19.03C64.9722 15.405 61.4403 12.5943 57.6698 11.1057H57.6661ZM18.5585 23.9277C15.243 27.136 9.25716 32.4693 6.08709 29.5716C5.09131 28.6625 4.75192 27.1815 4.66988 25.8784C4.57291 24.3709 4.79668 22.7951 5.37475 21.4012C5.8111 20.3481 6.57565 19.1474 7.78401 18.9618C11.3382 18.4087 15.2393 19.53 18.2863 21.3784C19.1851 21.9239 19.3194 23.189 18.5585 23.9239V23.9277ZM28.1508 24.1247C26.562 24.3671 25.432 23.5489 24.0894 22.939L24.3952 22.2269L28.438 18.8216L28.1508 24.1247Z" fill="white"/>
</g>
<defs>
<clipPath id="clip0_1989_1029">
<rect width="68" height="175" fill="white"/>
</clipPath>
</defs>
</svg>
